<svg width="448" height="446" viewBox="0 0 448 446" fill="none" xmlns="http://www.w3.org/2000/svg">
<g clip-path="url(#clip0)">
<path d="M122.319 376.487C134.481 376.487 144.34 359.631 144.34 338.838C144.34 318.046 134.481 301.19 122.319 301.19C110.157 301.19 100.297 318.046 100.297 338.838C100.297 359.631 110.157 376.487 122.319 376.487Z" fill="#6C63FF"/>
<path opacity="0.2" d="M106.059 313.692C104.005 321.907 103.726 331.102 105.273 339.636C106.819 348.17 110.09 355.485 114.501 360.275C118.912 365.065 124.176 367.017 129.351 365.783C134.527 364.549 139.277 360.209 142.753 353.538C141.498 358.557 139.62 363.05 137.249 366.704C134.878 370.359 132.07 373.089 129.021 374.704C125.971 376.32 122.753 376.783 119.588 376.061C116.424 375.338 113.389 373.449 110.694 370.522C107.999 367.596 105.709 363.703 103.981 359.113C102.254 354.523 101.131 349.345 100.69 343.94C100.249 338.534 100.501 333.029 101.428 327.806C102.355 322.583 103.935 317.767 106.059 313.692V313.692Z" fill="black"/>
<path d="M122.379 338.838H122.44L123.529 445.579H121.23L122.379 338.838Z" fill="#3F3D56"/>
<path d="M77.7626 306.278C102.284 306.278 122.162 272.293 122.162 230.371C122.162 188.449 102.284 154.464 77.7626 154.464C53.2414 154.464 33.363 188.449 33.363 230.371C33.363 272.293 53.2414 306.278 77.7626 306.278Z" fill="#6C63FF"/>
<path opacity="0.2" d="M44.9794 179.671C40.8379 196.233 40.2761 214.774 43.3943 231.979C46.5126 249.184 53.1077 263.933 62.0011 273.591C70.8946 283.248 81.5069 287.184 91.9417 284.696C102.376 282.208 111.954 273.458 118.962 260.009C116.432 270.127 112.646 279.185 107.865 286.554C103.084 293.922 97.4237 299.426 91.2753 302.683C85.1269 305.94 78.6379 306.873 72.2577 305.417C65.8775 303.962 59.7587 300.152 54.3253 294.251C48.8919 288.351 44.2737 280.502 40.7908 271.248C37.3079 261.993 35.0435 251.555 34.1545 240.656C33.2655 229.757 33.7732 218.658 35.6423 208.127C37.5115 197.597 40.6974 187.887 44.9794 179.671V179.671Z" fill="black"/>
<path d="M77.8845 230.371H78.0067L80.2024 445.579H75.5671L77.8845 230.371Z" fill="#3F3D56"/>
<path d="M370.49 334.188H166.982V437.328H370.49V334.188Z" fill="#F0F0F0"/>
<path d="M280.6 355.504H256.871V437.328H280.6V355.504Z" fill="#CACACA"/>
<path d="M358.625 212.484H178.846V307.372H358.625V212.484Z" fill="#F39C9C"/>
<path d="M376.852 218.329H160.62C160.259 218.328 159.906 218.144 159.607 217.799C159.308 217.453 159.076 216.963 158.941 216.39C158.806 215.818 158.775 215.189 158.85 214.586C158.926 213.982 159.106 213.431 159.366 213.004L218.462 115.89V73.5897C218.463 72.7693 218.653 71.9829 218.993 71.4028C219.332 70.8227 219.792 70.4964 220.272 70.4955H231.935C232.415 70.4964 232.875 70.8227 233.215 71.4028C233.554 71.9828 233.745 72.7693 233.745 73.5897V90.7755L238.209 83.4403C245.513 71.4368 255.204 64.6046 265.334 64.3166C275.465 64.0286 285.283 70.3062 292.817 81.8878L378.062 212.933C378.334 213.352 378.526 213.902 378.611 214.51C378.697 215.119 378.673 215.758 378.541 216.342C378.41 216.926 378.179 217.429 377.877 217.784C377.575 218.139 377.218 218.328 376.852 218.329V218.329Z" fill="#DE4444"/>
<path d="M226.305 236.55C227.81 236.55 229.301 237.057 230.691 238.041C232.082 239.026 233.346 240.47 234.41 242.289C235.474 244.109 236.319 246.269 236.895 248.647C237.471 251.025 237.767 253.573 237.767 256.146V282.619H214.842V256.146C214.842 250.949 216.05 245.964 218.2 242.289C220.349 238.614 223.265 236.55 226.305 236.55V236.55Z" fill="white"/>
<path d="M268.736 236.894C270.241 236.894 271.732 237.4 273.122 238.385C274.513 239.37 275.777 240.813 276.841 242.633C277.905 244.453 278.75 246.613 279.326 248.991C279.902 251.368 280.198 253.917 280.198 256.49V282.962H257.273V256.49C257.273 253.917 257.57 251.368 258.146 248.991C258.722 246.613 259.566 244.453 260.631 242.633C261.695 240.813 262.959 239.37 264.349 238.385C265.74 237.4 267.231 236.894 268.736 236.894Z" fill="white"/>
<path d="M311.167 237.237C312.672 237.237 314.163 237.744 315.553 238.729C316.944 239.714 318.208 241.157 319.272 242.977C320.336 244.797 321.181 246.957 321.757 249.335C322.333 251.712 322.629 254.26 322.629 256.834V283.306H299.704V256.834C299.704 254.26 300.001 251.712 300.577 249.335C301.153 246.957 301.997 244.797 303.062 242.977C304.126 241.157 305.39 239.714 306.78 238.729C308.171 237.744 309.662 237.237 311.167 237.237V237.237Z" fill="white"/>
<path d="M328.059 354.472C331.099 354.472 334.014 356.537 336.164 360.212C338.314 363.887 339.521 368.872 339.521 374.069V400.541H316.596V374.069C316.596 368.872 317.804 363.887 319.954 360.212C322.103 356.537 325.019 354.472 328.059 354.472Z" fill="white"/>
<path d="M214.641 354.472C217.681 354.472 220.597 356.537 222.746 360.212C224.896 363.887 226.104 368.872 226.104 374.069V400.541H203.179V374.069C203.179 371.495 203.475 368.947 204.051 366.57C204.627 364.192 205.472 362.032 206.536 360.212C207.6 358.392 208.864 356.949 210.255 355.964C211.645 354.979 213.136 354.472 214.641 354.472V354.472Z" fill="white"/>
<path d="M400.222 335.799L362.046 306.92C361.841 306.765 361.619 306.684 361.395 306.684H179.455C179.247 306.684 179.042 306.753 178.849 306.887L137.295 335.766C136.949 336.006 136.663 336.444 136.486 337.005C136.308 337.566 136.25 338.216 136.322 338.842C136.394 339.468 136.59 340.032 136.878 340.437C137.166 340.843 137.528 341.064 137.901 341.064H148.682V435.952H147.476V445.579H389.996V435.952H387.985V341.064H399.571C399.94 341.064 400.297 340.848 400.584 340.45C400.87 340.053 401.068 339.5 401.145 338.883C401.221 338.266 401.171 337.622 401.003 337.061C400.835 336.5 400.559 336.054 400.222 335.799V335.799ZM384.768 435.952H151.9V341.064H384.768V435.952Z" fill="#DE4444"/>
<path d="M240.583 278.837H211.223V287.088H240.583V278.837Z" fill="#CACACA"/>
<path d="M283.617 278.837H254.257V287.088H283.617V278.837Z" fill="#CACACA"/>
<path d="M326.651 278.837H297.291V287.088H326.651V278.837Z" fill="#CACACA"/>
<path d="M342.739 397.791H313.379V406.042H342.739V397.791Z" fill="#CACACA"/>
<path d="M228.919 397.791H199.559V406.042H228.919V397.791Z" fill="#CACACA"/>
<path d="M447.507 446H0.492849C0.362138 446 0.236779 445.911 0.144352 445.753C0.0519247 445.595 0 445.381 0 445.157C0 444.934 0.0519247 444.72 0.144352 444.562C0.236779 444.404 0.362138 444.315 0.492849 444.315H447.507C447.638 444.315 447.763 444.404 447.856 444.562C447.948 444.72 448 444.934 448 445.157C448 445.381 447.948 445.595 447.856 445.753C447.763 445.911 447.638 446 447.507 446Z" fill="#3F3D56"/>
<path d="M329.218 374.935L329.078 371.974C328.898 370.812 327.201 374.457 326.998 374.537C326.462 374.343 325.911 374.301 325.367 374.411C325.44 369.098 324.962 371.507 323.573 373.904C319.099 377.782 320.74 390.032 325.834 390.093C330.479 390.555 332.79 379.762 329.218 374.935Z" fill="#3F3D56"/>
<path d="M329.846 386.951C331.699 386.901 334.03 398.016 329.639 398.073C327.368 398.103 323.346 398.861 323.346 398.861C323.346 398.861 320.22 390.839 321.614 385.849L329.846 386.951Z" fill="#3F3D56"/>
<path d="M325.771 392.825V398.583H327.346L328.595 392.72" fill="#3F3D56"/>
<path d="M327.346 398.689C327.314 398.628 325.643 398.819 325.71 398.584L325.71 392.825C325.988 392.053 325.765 398.553 325.833 398.479H327.303C327.376 398.406 328.463 392.508 328.616 392.621C328.624 392.626 328.631 392.633 328.637 392.643C328.643 392.652 328.648 392.663 328.651 392.676C328.655 392.688 328.657 392.702 328.657 392.715C328.657 392.729 328.656 392.743 328.653 392.756C328.595 392.827 327.464 398.725 327.346 398.689Z" fill="white"/>
<path d="M331.144 398.231C331.188 399.177 328.52 399.177 328.565 398.231C328.521 397.284 331.188 397.284 331.144 398.231Z" fill="#3F3D56"/>
<path d="M329.21 397.601C329.056 397.665 328.535 393.296 330.118 392.679C328.577 394.082 329.371 397.325 329.21 397.601Z" fill="white"/>
<path d="M331.396 396.641C331.388 396.62 331.381 396.598 331.374 396.576L331.173 396.589L331.396 396.641Z" fill="#3F3D56"/>
<path d="M338.087 393.314C337.181 391.007 335.428 392.056 334.743 394.166C333.929 396.712 330.455 394.818 330.888 398.237C333.058 397.455 339.479 400.133 338.087 393.314Z" fill="#3F3D56"/>
<path d="M325.567 389.335C324.142 389.811 321.629 386.793 321.562 385.903C321.554 385.88 321.552 385.852 321.556 385.825C321.56 385.799 321.57 385.776 321.583 385.762C321.597 385.748 321.613 385.743 321.629 385.749C321.644 385.755 321.658 385.771 321.667 385.794C322.151 386.971 322.819 387.893 323.594 388.455C324.794 389.495 326.988 389.519 329.899 386.898C328.63 388.431 327.121 389.28 325.567 389.335V389.335Z" fill="white"/>
<path d="M325.833 384.008C325.511 384.179 325.232 382.851 325.526 383.273C325.526 383.412 325.558 383.545 325.616 383.644C325.673 383.742 325.751 383.798 325.833 383.798C326.095 383.842 326.083 383.352 326.201 383.168C326.406 383.449 326.055 384.061 325.833 384.008Z" fill="white"/>
<path d="M325.249 398.249C325.127 398.277 324.266 392.989 324.209 392.909C324.204 392.883 324.205 392.854 324.213 392.829C324.22 392.805 324.233 392.786 324.248 392.777C324.409 392.668 325.235 398.041 325.308 398.112C325.311 398.128 325.312 398.144 325.31 398.16C325.308 398.177 325.305 398.192 325.299 398.205C325.293 398.219 325.286 398.229 325.277 398.237C325.269 398.244 325.259 398.248 325.249 398.249V398.249Z" fill="white"/>
<path d="M327.828 398.966C327.873 399.912 325.205 399.912 325.249 398.965C325.205 398.019 327.873 398.019 327.828 398.966Z" fill="#3F3D56"/>
<path d="M325.741 398.861C325.785 399.807 323.117 399.807 323.162 398.86C323.118 397.914 325.785 397.914 325.741 398.861Z" fill="#3F3D56"/>
<path d="M326.355 381.961C326.37 382.377 325.356 382.377 325.372 381.961C325.357 381.544 326.37 381.544 326.355 381.961Z" fill="white"/>
<path d="M322.561 381.985C322.702 381.698 322.878 381.468 323.076 381.309C323.275 381.151 323.491 381.069 323.71 381.069C323.929 381.069 324.146 381.151 324.344 381.309C324.543 381.468 324.719 381.698 324.86 381.985C326.443 379.474 324.101 375.279 322.561 377.868C322.398 378.134 322.269 378.453 322.18 378.807C322.092 379.161 322.046 379.542 322.046 379.926C322.046 380.311 322.092 380.692 322.18 381.045C322.269 381.399 322.398 381.719 322.561 381.985V381.985Z" fill="white"/>
<path d="M327.055 381.985C327.196 381.698 327.372 381.468 327.57 381.309C327.769 381.151 327.985 381.069 328.204 381.069C328.423 381.069 328.64 381.151 328.838 381.309C329.037 381.468 329.213 381.698 329.354 381.985C330.937 379.474 328.595 375.279 327.055 377.868C326.892 378.134 326.763 378.453 326.674 378.807C326.586 379.161 326.54 379.542 326.54 379.926C326.54 380.311 326.586 380.692 326.674 381.045C326.763 381.399 326.892 381.719 327.055 381.985V381.985Z" fill="white"/>
<path d="M322.98 379.224C323.13 379.231 323.271 379.337 323.375 379.52C323.479 379.703 323.538 379.948 323.538 380.203C323.538 380.458 323.479 380.703 323.375 380.886C323.271 381.069 323.13 381.175 322.98 381.182C322.831 381.175 322.69 381.069 322.585 380.886C322.481 380.703 322.423 380.458 322.423 380.203C322.423 379.948 322.481 379.703 322.585 379.52C322.69 379.337 322.831 379.231 322.98 379.224V379.224Z" fill="#3F3D56"/>
<path d="M327.474 379.224C327.624 379.231 327.765 379.337 327.869 379.52C327.973 379.703 328.032 379.948 328.032 380.203C328.032 380.458 327.973 380.703 327.869 380.886C327.765 381.069 327.624 381.175 327.474 381.182C327.325 381.175 327.184 381.069 327.079 380.886C326.975 380.703 326.917 380.458 326.917 380.203C326.917 379.948 326.975 379.703 327.08 379.52C327.184 379.337 327.325 379.231 327.474 379.224V379.224Z" fill="#3F3D56"/>
<path d="M328.258 382.34C328.389 382.347 328.513 382.44 328.604 382.6C328.695 382.76 328.746 382.975 328.746 383.198C328.746 383.422 328.695 383.637 328.604 383.797C328.513 383.957 328.389 384.05 328.258 384.056C328.127 384.05 328.003 383.957 327.912 383.797C327.821 383.637 327.77 383.422 327.77 383.198C327.77 382.975 327.821 382.76 327.912 382.6C328.003 382.44 328.127 382.347 328.258 382.34V382.34Z" fill="#FF6584"/>
<path d="M323.724 382.34C323.854 382.347 323.979 382.44 324.07 382.6C324.161 382.76 324.212 382.975 324.212 383.198C324.212 383.422 324.161 383.637 324.07 383.797C323.979 383.957 323.854 384.05 323.724 384.056C323.593 384.05 323.469 383.957 323.378 383.797C323.286 383.637 323.235 383.422 323.235 383.198C323.235 382.975 323.286 382.76 323.378 382.6C323.469 382.44 323.593 382.347 323.724 382.34V382.34Z" fill="#FF6584"/>
<path d="M179.737 49.0621C179.61 49.0619 179.488 48.9795 179.395 48.8314C179.302 48.6834 179.246 48.4807 179.237 48.2642C178.909 40.6414 176.909 33.5115 173.638 28.3013C170.367 23.0911 166.065 20.1849 161.594 20.1644C161.059 20.1644 160.497 20.2109 159.924 20.3026C159.828 20.318 159.731 20.2859 159.646 20.21C159.56 20.1342 159.489 20.0178 159.441 19.8748C157.388 13.7293 154.321 8.75381 150.624 5.56933C146.926 2.38486 142.763 1.13242 138.652 1.96832C134.541 2.80422 130.665 5.69143 127.507 10.2696C124.35 14.8479 122.051 20.9143 120.898 27.712C120.868 27.8941 120.803 28.0538 120.713 28.1658C120.624 28.2779 120.515 28.336 120.405 28.331L120.271 28.3241C120.202 28.3201 120.132 28.3159 120.062 28.3159C116.671 28.334 113.386 30.3339 110.751 33.9836C108.116 37.6333 106.291 42.7135 105.577 48.3811C105.553 48.5737 105.491 48.7465 105.402 48.8705C105.313 48.9945 105.201 49.0622 105.086 49.0622H71.4615C71.3955 49.0625 71.33 49.0406 71.269 48.9976C71.2079 48.9547 71.1524 48.8915 71.1056 48.8118C71.0588 48.7321 71.0217 48.6374 70.9964 48.5331C70.9711 48.4288 70.9581 48.317 70.9581 48.2041C70.9581 48.0912 70.9711 47.9794 70.9964 47.8751C71.0217 47.7709 71.0588 47.6761 71.1056 47.5964C71.1524 47.5167 71.2079 47.4536 71.269 47.4106C71.33 47.3677 71.3955 47.3457 71.4615 47.3461H104.684C105.521 41.4509 107.488 36.2045 110.272 32.4442C113.056 28.6839 116.497 26.6263 120.045 26.5998C121.308 19.6144 123.731 13.4064 127.019 8.73016C130.306 4.05388 134.317 1.11053 138.565 0.257686C142.812 -0.595156 147.113 0.679221 150.945 3.92599C154.777 7.17276 157.975 12.2522 160.151 18.5472C160.644 18.4814 161.129 18.4483 161.594 18.4483C166.319 18.4702 170.865 21.5414 174.322 27.0475C177.778 32.5536 179.892 40.0884 180.238 48.144C180.243 48.2565 180.235 48.3693 180.214 48.4762C180.193 48.5831 180.16 48.6819 180.116 48.767C180.073 48.852 180.021 48.9217 179.962 48.972C179.903 49.0223 179.838 49.0522 179.773 49.0601C179.761 49.0615 179.749 49.0621 179.737 49.0621Z" fill="#CBCBCB"/>
<path d="M173.765 60.064H91.4544C91.3213 60.064 91.1936 59.9736 91.0995 59.8126C91.0054 59.6517 90.9525 59.4335 90.9525 59.2059C90.9525 58.9783 91.0054 58.7601 91.0995 58.5992C91.1936 58.4382 91.3213 58.3478 91.4544 58.3478H173.765C173.899 58.3478 174.026 58.4382 174.12 58.5992C174.214 58.7601 174.267 58.9783 174.267 59.2059C174.267 59.4335 174.214 59.6517 174.12 59.8126C174.026 59.9736 173.899 60.064 173.765 60.064V60.064Z" fill="#CBCBCB"/>
<path d="M111.53 72.5058H83.9259C83.7928 72.5058 83.6652 72.4154 83.571 72.2545C83.4769 72.0935 83.424 71.8753 83.424 71.6477C83.424 71.4201 83.4769 71.2019 83.571 71.041C83.6652 70.8801 83.7928 70.7897 83.9259 70.7897H111.53C111.663 70.7897 111.791 70.8801 111.885 71.041C111.979 71.2019 112.032 71.4201 112.032 71.6477C112.032 71.8753 111.979 72.0935 111.885 72.2545C111.791 72.4154 111.663 72.5058 111.53 72.5058V72.5058Z" fill="#CBCBCB"/>
<path d="M443.411 113.099C443.285 113.099 443.162 113.016 443.07 112.868C442.977 112.72 442.92 112.517 442.911 112.301C442.583 104.678 440.583 97.5482 437.312 92.338C434.041 87.1278 429.74 84.2217 425.269 84.2011C424.734 84.2011 424.172 84.2476 423.598 84.3394C423.502 84.3548 423.406 84.3226 423.32 84.2468C423.235 84.1709 423.164 84.0546 423.116 83.9116C421.062 77.7661 417.995 72.7906 414.298 69.6061C410.601 66.4216 406.437 65.1692 402.326 66.0051C398.215 66.841 394.339 69.7282 391.182 74.3064C388.024 78.8846 385.726 84.9511 384.573 91.7487C384.542 91.9309 384.477 92.0906 384.388 92.2026C384.298 92.3147 384.19 92.3728 384.079 92.3678L383.946 92.3608C383.876 92.3569 383.807 92.3527 383.737 92.3527C380.346 92.3708 377.06 94.3707 374.425 98.0204C371.791 101.67 369.965 106.75 369.251 112.418C369.228 112.611 369.166 112.783 369.076 112.907C368.987 113.031 368.875 113.099 368.76 113.099H335.136C335.07 113.099 335.004 113.077 334.943 113.034C334.882 112.991 334.827 112.928 334.78 112.849C334.733 112.769 334.696 112.674 334.671 112.57C334.645 112.466 334.632 112.354 334.632 112.241C334.632 112.128 334.645 112.016 334.671 111.912C334.696 111.808 334.733 111.713 334.78 111.633C334.827 111.553 334.882 111.49 334.943 111.447C335.004 111.404 335.07 111.383 335.136 111.383H368.359C369.195 105.488 371.162 100.241 373.946 96.481C376.731 92.7206 380.171 90.6631 383.719 90.6366C384.983 83.6512 387.405 77.4432 390.693 72.7669C393.981 68.0907 397.992 65.1473 402.239 64.2945C406.487 63.4416 410.788 64.716 414.62 67.9628C418.452 71.2095 421.65 76.289 423.825 82.5839C424.319 82.5182 424.803 82.4851 425.269 82.4851C429.993 82.5069 434.539 85.5782 437.996 91.0843C441.453 96.5904 443.566 104.125 443.913 112.181C443.917 112.293 443.909 112.406 443.888 112.513C443.867 112.62 443.834 112.719 443.791 112.804C443.748 112.889 443.695 112.958 443.636 113.009C443.577 113.059 443.513 113.089 443.447 113.097C443.435 113.098 443.423 113.099 443.411 113.099Z" fill="#CBCBCB"/>
<path d="M437.44 124.101H355.129C354.996 124.101 354.868 124.01 354.774 123.849C354.68 123.688 354.627 123.47 354.627 123.243C354.627 123.015 354.68 122.797 354.774 122.636C354.868 122.475 354.996 122.385 355.129 122.385H437.44C437.573 122.385 437.701 122.475 437.795 122.636C437.889 122.797 437.942 123.015 437.942 123.243C437.942 123.47 437.889 123.688 437.795 123.849C437.701 124.01 437.573 124.101 437.44 124.101Z" fill="#CBCBCB"/>
<path d="M375.205 136.543H347.6C347.467 136.543 347.34 136.452 347.245 136.291C347.151 136.13 347.098 135.912 347.098 135.684C347.098 135.457 347.151 135.239 347.245 135.078C347.34 134.917 347.467 134.826 347.6 134.826H375.205C375.338 134.826 375.465 134.917 375.56 135.078C375.654 135.239 375.707 135.457 375.707 135.684C375.707 135.912 375.654 136.13 375.56 136.291C375.465 136.452 375.338 136.543 375.205 136.543V136.543Z" fill="#CBCBCB"/>
<path d="M88.4657 430.859C94.8268 433.981 94.9021 418.612 95.9142 411.696C92.3188 415.882 86.2566 421.849 88.4891 430.672" fill="#6C63FF"/>
<path d="M88.8166 442.783C87.981 434.703 87.9283 424.47 92.5655 419.695C92.787 419.455 92.9911 420.056 92.7703 420.294C88.2933 424.924 88.4262 434.81 89.2086 442.598C89.2208 442.685 89.2126 442.778 89.1858 442.855C89.1589 442.933 89.1156 442.99 89.0647 443.013C89.0139 443.037 88.9597 443.027 88.9134 442.983C88.8671 442.94 88.8325 442.868 88.8167 442.782L88.8166 442.783Z" fill="#3F3D56"/>
<path d="M90.8752 437.067C93.7861 443.747 97.8397 434.802 100.237 431.524C97.0393 431.233 91.9319 430.106 90.9382 436.975" fill="#6C63FF"/>
<path d="M88.0081 444.83C89.6535 439.445 92.2812 433.355 96.287 434.124C96.5472 434.162 96.4821 434.848 96.2224 434.81C92.4174 434.137 89.9418 439.987 88.3794 445.114C88.2519 445.499 87.8792 445.221 88.0081 444.83Z" fill="#3F3D56"/>
<path d="M411.66 430.859C405.299 433.981 405.224 418.612 404.211 411.696C407.807 415.882 413.869 421.849 411.636 430.672" fill="#6C63FF"/>
<path d="M411.309 442.783C412.145 434.703 412.197 424.47 407.56 419.695C407.339 419.455 407.134 420.056 407.355 420.294C411.832 424.924 411.699 434.81 410.917 442.598C410.905 442.685 410.913 442.778 410.94 442.855C410.967 442.933 411.01 442.99 411.061 443.013C411.112 443.037 411.166 443.027 411.212 442.983C411.258 442.94 411.293 442.868 411.309 442.782L411.309 442.783Z" fill="#3F3D56"/>
<path d="M409.25 437.067C406.34 443.747 402.286 434.802 399.889 431.524C403.086 431.233 408.194 430.106 409.187 436.975" fill="#6C63FF"/>
<path d="M412.117 444.83C410.472 439.445 407.844 433.355 403.839 434.124C403.578 434.162 403.643 434.848 403.903 434.81C407.708 434.137 410.184 439.987 411.746 445.114C411.874 445.499 412.246 445.221 412.117 444.83Z" fill="#3F3D56"/>
<path d="M438.407 420.127C427.318 425.57 427.187 398.779 425.422 386.724C431.69 394.02 442.258 404.422 438.366 419.801" fill="#6C63FF"/>
<path d="M437.795 440.913C439.252 426.829 439.344 408.99 431.26 400.666C430.874 400.249 430.518 401.296 430.903 401.711C438.707 409.781 438.475 427.015 437.112 440.591C437.09 440.744 437.105 440.905 437.151 441.04C437.198 441.175 437.274 441.274 437.362 441.316C437.451 441.357 437.546 441.338 437.626 441.263C437.707 441.188 437.767 441.062 437.795 440.912L437.795 440.913Z" fill="#3F3D56"/>
<path d="M434.206 430.949C429.132 442.594 422.066 427.001 417.888 421.286C423.461 420.78 432.364 418.816 434.097 430.79" fill="#6C63FF"/>
<path d="M439.204 444.483C436.336 435.095 431.756 424.479 424.773 425.819C424.319 425.886 424.432 427.082 424.885 427.015C431.518 425.841 435.834 436.04 438.557 444.976C438.779 445.648 439.429 445.163 439.204 444.483Z" fill="#3F3D56"/>
<path d="M39.3777 442.46H41.2505L42.1416 430.11H39.3777V442.46Z" fill="#FFB6B6"/>
<path d="M38.9001 441.415L42.5885 441.415H42.5887C43.2121 441.415 43.8099 441.838 44.2507 442.592C44.6915 443.345 44.9392 444.367 44.9393 445.433V445.564L38.9002 445.564L38.9001 441.415Z" fill="#2F2E41"/>
<path d="M48.2386 442.46H50.1114L51.0025 430.11H48.2381L48.2386 442.46Z" fill="#FFB6B6"/>
<path d="M47.7607 441.415L51.4491 441.415H51.4492C52.0726 441.415 52.6705 441.838 53.1113 442.592C53.5521 443.345 53.7998 444.367 53.7998 445.433V445.564L47.7608 445.564L47.7607 441.415Z" fill="#2F2E41"/>
<path d="M51.7338 385.998C51.8921 385.689 52.0089 385.326 52.0761 384.932C52.1432 384.538 52.1591 384.124 52.1225 383.718C52.0859 383.313 51.9977 382.926 51.8643 382.586C51.7308 382.245 51.5552 381.958 51.3499 381.746L48.302 356.728L44.9814 358.964L49.0216 382.853C48.8359 383.466 48.7882 384.175 48.8876 384.844C48.987 385.513 49.2265 386.097 49.5608 386.485C49.8951 386.872 50.3009 387.037 50.7014 386.947C51.1019 386.857 51.4692 386.519 51.7338 385.998H51.7338Z" fill="#FFB6B6"/>
<path d="M37.3692 381.18L35.9887 383.576C35.9887 383.576 34.5086 392.848 37.3409 404.284L39.2352 437.441L42.6434 437.879L43.6609 399.305L48.3555 412.109L47.5355 437.742L51.3029 437.594L53.0056 409.191L48.3555 379.551L37.3692 381.18Z" fill="#2F2E41"/>
<path d="M42.1961 384.407C40.1174 384.383 38.0413 384.148 35.9787 383.705L35.8956 383.686L37.9529 368.228L37.2445 348.339L43.9339 347.948C44.5394 347.91 45.1318 348.256 45.5972 348.92C46.0625 349.583 46.3681 350.517 46.4553 351.542L47.8244 367.41L49.0909 381.488L49.0739 381.531C48.1638 383.812 45.1209 384.407 42.1961 384.407Z" fill="#6C63FF"/>
<path d="M43.3253 351.237L44.6844 348.324C44.6844 348.324 47.0671 345.539 47.8212 351.508C48.5753 357.478 49.9764 367.168 49.9764 367.168L45.3173 367.813L43.3253 351.237Z" fill="#6C63FF"/>
<path d="M30.4456 386.259C30.2873 385.951 30.1704 385.587 30.1033 385.193C30.0361 384.799 30.0203 384.385 30.0568 383.98C30.0934 383.574 30.1816 383.188 30.315 382.847C30.4485 382.506 30.6241 382.219 30.8294 382.007L33.8773 356.989L37.1979 359.226L33.1577 383.114C33.3434 383.727 33.3911 384.436 33.2917 385.105C33.1923 385.774 32.9528 386.358 32.6185 386.746C32.2843 387.133 31.8784 387.298 31.478 387.208C31.0775 387.118 30.7101 386.781 30.4456 386.259V386.259Z" fill="#FFB6B6"/>
<path d="M38.8541 351.498L37.4949 348.585C37.4949 348.585 35.1122 345.8 34.3581 351.769C33.604 357.739 32.2029 367.43 32.2029 367.43L36.8621 368.075L38.8541 351.498Z" fill="#6C63FF"/>
<path d="M44.582 345.039H35.7214C35.5391 345.039 35.3644 344.915 35.2355 344.694C35.1066 344.474 35.0341 344.175 35.0339 343.864V337.334C35.0339 335.014 35.5731 332.788 36.5329 331.147C37.4927 329.507 38.7944 328.585 40.1517 328.585C41.509 328.585 42.8107 329.507 43.7705 331.147C44.7302 332.788 45.2694 335.014 45.2694 337.334V343.864C45.2692 344.175 45.1967 344.474 45.0679 344.694C44.939 344.915 44.7642 345.039 44.582 345.039V345.039Z" fill="#2F2E41"/>
<path d="M41.13 344.646C43.2022 344.646 44.8821 341.774 44.8821 338.231C44.8821 334.688 43.2022 331.816 41.13 331.816C39.0577 331.816 37.3778 334.688 37.3778 338.231C37.3778 341.774 39.0577 344.646 41.13 344.646Z" fill="#FFB6B6"/>
<path d="M46.4802 337.987H41.0622L41.0066 336.657L40.7288 337.987H39.8945L39.7844 335.352L39.2339 337.987H37.6196V337.857C37.6208 336.022 38.0477 334.263 38.8067 332.965C39.5656 331.667 40.5946 330.938 41.6679 330.936H42.4318C43.5051 330.938 44.5341 331.667 45.2931 332.965C46.0521 334.263 46.479 336.022 46.4802 337.857V337.987Z" fill="#2F2E41"/>
<path d="M41.0178 346.258C40.977 346.258 40.9363 346.252 40.8961 346.24L36.9288 345.043V333.833H41.2961L41.188 334.049C39.6836 337.048 40.817 341.912 41.6264 344.544C41.6861 344.737 41.7127 344.954 41.7032 345.172C41.6936 345.389 41.6484 345.598 41.5726 345.773C41.5091 345.923 41.4258 346.045 41.3293 346.13C41.2329 346.214 41.1261 346.258 41.0178 346.258V346.258Z" fill="#2F2E41"/>
</g>
<defs>
<clipPath id="clip0">
<rect width="448" height="446" fill="white"/>
</clipPath>
</defs>
</svg>
